<?xml version="1.0" encoding="UTF-8"?><svg id="_이어_1" xmlns="http://www.w3.org/2000/svg" viewBox="0 0 104 111"><defs><style>.cls-1{fill:#9bbace;}</style></defs><path class="cls-1" d="M82.26,68.03c2.82-3.09,1.84-8.03-1.94-9.81l-5.95-2.8c-2.26-1.07-3.67-3.38-3.56-5.88l.27-6.57c.17-4.18-3.75-7.34-7.8-6.27l-6.36,1.68c-2.42,.64-4.98-.24-6.51-2.22l-4.01-5.21c-2.55-3.32-7.59-3.21-10,.21l-3.79,5.37c-1.44,2.04-3.97,3.02-6.41,2.49l-6.42-1.41c-4.09-.9-7.88,2.42-7.53,6.59l.55,6.56c.21,2.49-1.1,4.87-3.31,6.03l-5.83,3.05c-3.71,1.94-4.48,6.92-1.53,9.89l4.63,4.67c1.76,1.78,2.29,4.43,1.33,6.75l-2.51,6.08c-1.59,3.87,1.01,8.18,5.18,8.56l6.55,.6c2.49,.23,4.6,1.93,5.36,4.31l1.99,6.27c1.27,3.99,6.03,5.61,9.47,3.23l5.4-3.75c2.05-1.43,4.76-1.48,6.88-.14l5.55,3.52c3.53,2.24,8.23,.42,9.33-3.62l1.73-6.35c.66-2.41,2.7-4.2,5.18-4.53l6.52-.87c4.15-.55,6.57-4.97,4.82-8.77l-2.76-5.97c-1.05-2.27-.63-4.95,1.05-6.8l4.44-4.86Zm-40.16,14.86c-7.18,0-13-5.82-13-13s5.82-13,13-13,13,5.82,13,13-5.82,13-13,13Z"/><path class="cls-1" d="M103.15,20.66c1.48-1.62,.96-4.2-1.01-5.13l-3.11-1.47c-1.18-.56-1.92-1.77-1.86-3.08l.14-3.44c.09-2.19-1.96-3.84-4.08-3.28l-3.33,.88c-1.26,.33-2.61-.12-3.4-1.16l-2.1-2.72c-1.34-1.73-3.97-1.68-5.23,.11l-1.98,2.81c-.75,1.07-2.07,1.58-3.35,1.3l-3.36-.74c-2.14-.47-4.12,1.26-3.94,3.44l.29,3.43c.11,1.3-.57,2.54-1.73,3.15l-3.05,1.59c-1.94,1.01-2.34,3.62-.8,5.17l2.42,2.44c.92,.93,1.2,2.32,.7,3.53l-1.31,3.18c-.83,2.02,.53,4.27,2.71,4.47l3.42,.31c1.3,.12,2.41,1.01,2.8,2.25l1.04,3.28c.66,2.09,3.15,2.93,4.95,1.69l2.82-1.96c1.07-.75,2.49-.77,3.59-.07l2.9,1.84c1.85,1.17,4.3,.22,4.88-1.89l.9-3.32c.34-1.26,1.41-2.19,2.71-2.37l3.41-.46c2.17-.29,3.44-2.6,2.52-4.58l-1.44-3.12c-.55-1.19-.33-2.59,.55-3.55l2.32-2.54Zm-21,7.77c-3.75,0-6.8-3.04-6.8-6.8s3.04-6.8,6.8-6.8,6.8,3.04,6.8,6.8-3.04,6.8-6.8,6.8Z"/></svg>